<svg id="Layer_1" data-name="Layer 1" xmlns="http://www.w3.org/2000/svg" viewBox="0 0 190.54 77.6"><defs><style>.cls-1{fill:#638c1c;}.cls-2{fill:#54565a;}</style></defs><title>logo</title><path class="cls-1" d="M59.72,41a28.52,28.52,0,0,0-6.35-17.23A25.82,25.82,0,0,0,59.58,6.5H51.22A23.89,23.89,0,0,0,51.54,0H24.43a23.68,23.68,0,0,0,.31,6.5H16.38a25.82,25.82,0,0,0,6.21,17.22A28.52,28.52,0,0,0,16.24,41h8.61a38.76,38.76,0,0,0-.51,6.51H51.62A38.76,38.76,0,0,0,51.11,41ZM56.44,9.43a22.82,22.82,0,0,1-4.87,12.28A37.61,37.61,0,0,0,47,18c3.39-5.62,3.6-8.58,3.6-8.58ZM34.56,23.72a46.41,46.41,0,0,0-4,3.5A30.53,30.53,0,0,1,26,23.72a22.43,22.43,0,0,1,4.55-3.49S32,21.5,34.56,23.72ZM38,14.09a21.12,21.12,0,0,0,4.76,4.45A11.39,11.39,0,0,1,38,22l0,0,0,0a11.39,11.39,0,0,1-4.76-3.49,21.12,21.12,0,0,0,4.76-4.45M38,25.42a11.3,11.3,0,0,1,4.76,3.49,22.07,22.07,0,0,0-4.64,4.29l-.12.16h-.08l-.12-.16a22.07,22.07,0,0,0-4.64-4.29,11.3,11.3,0,0,1,4.76-3.49m3.46-1.7c2.55-2.22,4-3.49,4-3.49A22.43,22.43,0,0,1,50,23.72a30.53,30.53,0,0,1-4.55,3.5A46.41,46.41,0,0,0,41.4,23.72ZM27.25,3H48.71s.32,8-4.13,13.66a14.41,14.41,0,0,1-3.81-3.71,7,7,0,0,1-1.21-3.17,22.44,22.44,0,0,1-.17-3.5H36.57a22.44,22.44,0,0,1-.17,3.5,7,7,0,0,1-1.21,3.17,14.41,14.41,0,0,1-3.81,3.71C26.93,11,27.25,3,27.25,3ZM19.52,9.43h5.82s.21,3,3.6,8.58a37.61,37.61,0,0,0-4.55,3.7A22.82,22.82,0,0,1,19.52,9.43Zm0,28.48a22.87,22.87,0,0,1,4.87-12.28,38.52,38.52,0,0,0,4.55,3.71c-3.39,5.61-3.6,8.57-3.6,8.57Zm29.19,6.57H27.25s-.32-8,4.13-13.66a14.41,14.41,0,0,1,3.81,3.71A7,7,0,0,1,36.4,37.7a22.44,22.44,0,0,1,.17,3.5h2.82a22.44,22.44,0,0,1,.17-3.5,7,7,0,0,1,1.21-3.17,14.41,14.41,0,0,1,3.81-3.71C49,36.43,48.71,44.48,48.71,44.48ZM47,29.34a38.52,38.52,0,0,0,4.55-3.71,22.87,22.87,0,0,1,4.87,12.28H50.62S50.41,35,47,29.34Z"/><path class="cls-2" d="M1.13,58.2c0-1.33,0-1.53-.77-1.6l-.31,0c-.08,0,0-.28,0-.32.62,0,1,0,1.6,0s.93,0,1.48,0c.07,0,.1.27,0,.32l-.24,0c-.74.08-.76.27-.76,1.6v1.47c0,.24,0,.48.16.48A.76.76,0,0,0,2.69,60c.18-.15.51-.48.65-.61L4.71,58c.24-.23.86-.88,1-1.06a.37.37,0,0,0,.09-.2c0-.05,0-.09-.22-.13l-.34-.07a.21.21,0,0,1,0-.32c.44,0,1,0,1.39,0s.88,0,1.26,0a.24.24,0,0,1,0,.32,3.05,3.05,0,0,0-1.18.35A12.56,12.56,0,0,0,5,58.41L3.83,59.49c-.17.18-.29.29-.29.39s.08.19.24.4C5,61.66,6,62.8,7,63.85a1.58,1.58,0,0,0,1,.52l.34,0c.09.07.06.29,0,.32-.33,0-.82,0-1.42,0s-1,0-1.55,0c-.09,0-.13-.24-.05-.32l.29-.05c.18,0,.31-.06.31-.12s-.09-.18-.18-.29c-.24-.31-.57-.65-1.06-1.2l-1-1.14c-.73-.82-.93-1.07-1.24-1.07s-.21.17-.21.61v1.64c0,1.33,0,1.51.73,1.59l.35,0c.07.06,0,.29,0,.32l-1.55,0c-.52,0-.95,0-1.47,0-.08,0-.1-.23,0-.32l.26,0c.67-.1.7-.26.7-1.59Z"/><path class="cls-2" d="M12.14,60.58c-.61,0-.63,0-.63.41v1.79c0,1.33.06,1.51.77,1.59l.37,0a.25.25,0,0,1,0,.32l-1.62,0c-.54,0-1,0-1.47,0-.08,0-.1-.24,0-.32l.22,0c.71-.13.74-.26.74-1.59V58.2c0-1.33-.09-1.55-.75-1.6l-.33,0c-.08,0-.06-.28,0-.32.62,0,1.06,0,1.6,0s.93,0,1.48,0c.07,0,.1.27,0,.32l-.24,0c-.74.08-.76.27-.76,1.6v1.47c0,.39,0,.4.63.4h3.64c.61,0,.63,0,.63-.4V58.2c0-1.33,0-1.52-.77-1.6l-.24,0c-.08,0-.05-.28,0-.32.59,0,1,0,1.54,0s.93,0,1.5,0c.07,0,.1.27,0,.32l-.26,0c-.74.08-.76.27-.76,1.6v4.58c0,1.33,0,1.5.76,1.59l.3,0a.25.25,0,0,1,0,.32l-1.54,0c-.52,0-1,0-1.54,0-.07,0-.1-.24,0-.32l.24,0c.77-.13.77-.26.77-1.59V61c0-.38,0-.41-.63-.41Z"/><path class="cls-2" d="M25,61.74c-.09-.28-.14-.32-.52-.32H22.58c-.32,0-.4,0-.49.3l-.44,1.34a4.87,4.87,0,0,0-.28,1c0,.16.06.23.37.26l.42,0a.2.2,0,0,1,0,.32c-.33,0-.72,0-1.32,0-.42,0-.88,0-1.22,0a.26.26,0,0,1,0-.32l.42,0a.86.86,0,0,0,.77-.62c.23-.59.58-1.42,1.12-2.84l1.29-3.43a1.8,1.8,0,0,0,.22-.9A1.49,1.49,0,0,0,24,56.1a.18.18,0,0,1,.19.11c.16.56.37,1.14.56,1.7L26.53,63c.37,1.09.53,1.28,1.08,1.35l.34,0a.26.26,0,0,1,0,.32c-.52,0-1,0-1.54,0s-1.09,0-1.46,0a.22.22,0,0,1,0-.32l.37,0c.26,0,.44-.1.44-.23a2.68,2.68,0,0,0-.16-.68ZM22.5,60.61c-.1.29-.09.3.27.3h1.56c.37,0,.39,0,.28-.39l-.69-2.07a6.63,6.63,0,0,0-.29-.8h0a6.17,6.17,0,0,0-.31.74Z"/><path class="cls-2" d="M33,58.94c.66-.94,1-1.42,1.23-1.8a.85.85,0,0,0,.15-.35c0-.06-.13-.1-.46-.1H32c-1,0-1.59.09-1.89.42a3.38,3.38,0,0,0-.56.87.26.26,0,0,1-.32-.09A19.74,19.74,0,0,0,29.78,56,.22.22,0,0,1,30,56c0,.31.23.32,1.26.32h3.35a11.65,11.65,0,0,0,1.46,0,.11.11,0,0,1,.08.11,26.93,26.93,0,0,0-2.09,2.72l-2.09,3a16.2,16.2,0,0,0-1.26,2c0,.13.13.15.36.18s1,0,1.88,0A6.09,6.09,0,0,0,35.3,64a2.44,2.44,0,0,0,.89-1.17c.11,0,.28,0,.31.09a6.82,6.82,0,0,1-.57,1.8c-.7,0-1.42,0-2.31,0H30.35c-.67,0-1.13,0-1.42,0-.05,0-.06-.09-.06-.15a16.48,16.48,0,0,0,1.38-1.73Z"/><path class="cls-2" d="M42.76,61.74c-.09-.28-.14-.32-.53-.32H40.32c-.32,0-.4,0-.49.3l-.44,1.34a4.87,4.87,0,0,0-.28,1c0,.16.06.23.37.26l.42,0a.2.2,0,0,1,0,.32c-.33,0-.72,0-1.32,0-.42,0-.88,0-1.22,0a.26.26,0,0,1,0-.32l.42,0a.86.86,0,0,0,.77-.62c.22-.59.58-1.42,1.11-2.84l1.3-3.43a1.8,1.8,0,0,0,.22-.9,1.49,1.49,0,0,0,.66-.48.18.18,0,0,1,.19.11c.16.56.37,1.14.56,1.7L44.27,63c.37,1.09.53,1.28,1.08,1.35l.34,0a.26.26,0,0,1,0,.32c-.52,0-1,0-1.54,0s-1.09,0-1.46,0a.22.22,0,0,1,0-.32l.37,0c.26,0,.44-.1.44-.23a2.68,2.68,0,0,0-.16-.68Zm-2.52-1.13c-.1.29-.09.3.27.3h1.56c.37,0,.39,0,.28-.39l-.69-2.07a6.63,6.63,0,0,0-.29-.8h0a6.17,6.17,0,0,0-.31.74Z"/><path class="cls-2" d="M54.73,62.52c0,.39,0,1.9,0,2.23a.23.23,0,0,1-.24.14c-.15-.22-.52-.66-1.62-1.92L50,59.62c-.34-.4-1.21-1.44-1.48-1.72h0a3.29,3.29,0,0,0-.06.83V61.5a10.25,10.25,0,0,0,.22,2.63c.08.14.33.21.65.24l.4,0a.24.24,0,0,1,0,.32l-1.49,0c-.53,0-.87,0-1.32,0a.23.23,0,0,1,0-.32l.34,0c.29,0,.5-.12.56-.26a12,12,0,0,0,.16-2.61V57.82a1.18,1.18,0,0,0-.27-.91,1.41,1.41,0,0,0-.79-.31l-.22,0c-.08-.08-.08-.27,0-.32.53,0,1.2,0,1.43,0a3.57,3.57,0,0,0,.59,0,17.14,17.14,0,0,0,2.17,2.8L52,60.44c.88,1,1.5,1.69,2.1,2.3h0a1.29,1.29,0,0,0,.05-.53V59.49A9,9,0,0,0,54,56.86c-.08-.12-.28-.19-.79-.26l-.21,0c-.09-.08-.08-.28,0-.32.59,0,1,0,1.5,0s.88,0,1.31,0a.23.23,0,0,1,0,.32l-.18,0c-.41.07-.66.17-.71.27a10.08,10.08,0,0,0-.19,2.62Z"/><path class="cls-2" d="M61.89,61.74c-.08-.28-.14-.32-.52-.32H59.45c-.31,0-.39,0-.48.3l-.44,1.34a4.87,4.87,0,0,0-.28,1c0,.16.06.23.36.26l.42,0a.21.21,0,0,1,0,.32c-.33,0-.73,0-1.32,0-.42,0-.88,0-1.22,0a.26.26,0,0,1,0-.32l.42,0a.84.84,0,0,0,.76-.62c.23-.59.59-1.42,1.12-2.84L60,57.48a1.76,1.76,0,0,0,.21-.9,1.38,1.38,0,0,0,.66-.48.19.19,0,0,1,.2.11c.16.56.36,1.14.55,1.7L63.41,63c.36,1.09.53,1.28,1.08,1.35l.34,0a.26.26,0,0,1,0,.32c-.52,0-1,0-1.54,0s-1.09,0-1.46,0a.22.22,0,0,1,0-.32l.36,0c.27,0,.45-.1.45-.23a2.83,2.83,0,0,0-.17-.68Zm-2.51-1.13c-.1.29-.09.3.26.3h1.57c.37,0,.39,0,.28-.39l-.69-2.07c-.1-.31-.22-.65-.29-.8h0a7,7,0,0,0-.3.74Z"/><path class="cls-2" d="M68.7,60.58c-.61,0-.63,0-.63.41v1.79c0,1.33.06,1.51.77,1.59l.37,0a.25.25,0,0,1,0,.32l-1.62,0c-.54,0-1,0-1.47,0-.08,0-.1-.24,0-.32l.22,0c.71-.13.74-.26.74-1.59V58.2c0-1.33-.09-1.55-.75-1.6l-.33,0c-.08,0,0-.28,0-.32.63,0,1.06,0,1.6,0s.93,0,1.48,0c.07,0,.1.27,0,.32l-.24,0c-.74.08-.76.27-.76,1.6v1.47c0,.39,0,.4.63.4h3.64c.61,0,.63,0,.63-.4V58.2c0-1.33,0-1.52-.77-1.6l-.24,0c-.08,0,0-.28,0-.32.59,0,1,0,1.54,0s.93,0,1.5,0a.26.26,0,0,1,0,.32l-.27,0c-.74.08-.76.27-.76,1.6v4.58c0,1.33,0,1.5.76,1.59l.3,0a.25.25,0,0,1,0,.32l-1.54,0c-.52,0-1,0-1.54,0-.07,0-.1-.24,0-.32l.24,0c.77-.13.77-.26.77-1.59V61c0-.38,0-.41-.63-.41Z"/><path class="cls-2" d="M11.93,75.23c0,.38,0,1.9,0,2.23a.23.23,0,0,1-.24.14c-.15-.22-.52-.67-1.63-1.92L7.16,72.32c-.35-.39-1.21-1.43-1.48-1.71h0a3.13,3.13,0,0,0-.07.82V74.2a10.18,10.18,0,0,0,.23,2.63c.08.14.33.22.65.25l.39,0a.23.23,0,0,1,0,.32c-.57,0-1,0-1.49,0s-.88,0-1.32,0a.24.24,0,0,1,0-.32l.35,0c.29,0,.49-.12.56-.26a12.86,12.86,0,0,0,.16-2.62V70.53a1.15,1.15,0,0,0-.28-.91A1.38,1.38,0,0,0,4,69.31l-.21,0c-.08-.08-.08-.27,0-.32.54,0,1.21,0,1.44,0a5,5,0,0,0,.58,0A17.68,17.68,0,0,0,8,71.76l1.23,1.39c.88,1,1.5,1.69,2.1,2.3h0a1.29,1.29,0,0,0,.05-.53V72.2a9,9,0,0,0-.25-2.63c-.08-.12-.28-.2-.79-.26l-.21,0c-.09-.08-.08-.28,0-.32.58,0,1,0,1.5,0s.88,0,1.31,0a.22.22,0,0,1,0,.32l-.17,0c-.41.06-.66.17-.72.27a10.54,10.54,0,0,0-.19,2.62Z"/><path class="cls-2" d="M19.1,74.44c-.09-.27-.14-.31-.52-.31H16.66c-.32,0-.39,0-.48.3l-.45,1.34a4.87,4.87,0,0,0-.28,1c0,.15.07.23.37.26l.42,0a.21.21,0,0,1,0,.32c-.33,0-.73,0-1.32,0-.42,0-.88,0-1.23,0a.26.26,0,0,1,0-.32l.42,0a.86.86,0,0,0,.76-.63c.23-.58.59-1.41,1.12-2.83l1.3-3.43a1.87,1.87,0,0,0,.21-.9,1.38,1.38,0,0,0,.66-.49.18.18,0,0,1,.19.12c.17.56.37,1.14.56,1.7l1.74,5.11c.37,1.09.54,1.28,1.08,1.35l.35,0a.27.27,0,0,1,0,.32c-.52,0-1,0-1.54,0s-1.09,0-1.46,0a.22.22,0,0,1,0-.32l.37,0c.27,0,.45-.11.45-.23a2.83,2.83,0,0,0-.17-.68Zm-2.52-1.13c-.1.3-.08.31.27.31h1.56c.37,0,.4-.05.28-.39L18,71.15c-.1-.3-.22-.64-.29-.8h0c0,.07-.16.37-.31.75Z"/><path class="cls-2" d="M25.45,77.6a4,4,0,0,1-2-.47,5.85,5.85,0,0,1-.34-1.78c.06-.09.25-.12.3,0a2.32,2.32,0,0,0,2.19,1.89,1.44,1.44,0,0,0,1.59-1.46,1.92,1.92,0,0,0-1-1.78L25,73.17A2.69,2.69,0,0,1,23.59,71c0-1.21.94-2.19,2.59-2.19a4.87,4.87,0,0,1,1.18.17,1.71,1.71,0,0,0,.45.07A5.81,5.81,0,0,1,28,70.59c-.05.08-.25.12-.31,0A1.67,1.67,0,0,0,26,69.2a1.32,1.32,0,0,0-1.51,1.41,2,2,0,0,0,1.08,1.56l1,.64a2.85,2.85,0,0,1,1.59,2.43C28.16,76.64,27.11,77.6,25.45,77.6Z"/><path class="cls-2" d="M31.21,70.94c0-1.35,0-1.57-.77-1.63l-.32,0a.26.26,0,0,1,0-.32c.64,0,1.07,0,1.61,0s.94,0,1.57,0a.26.26,0,0,1,0,.32l-.32,0c-.75.06-.78.28-.78,1.63v4.52c0,1.35,0,1.53.78,1.62l.32,0a.26.26,0,0,1,0,.32c-.63,0-1.07,0-1.57,0s-1,0-1.61,0a.25.25,0,0,1,0-.32l.32,0c.75-.09.77-.27.77-1.62Z"/><path class="cls-2" d="M35.23,73.29a4.39,4.39,0,0,1,4.52-4.49,4.18,4.18,0,0,1,4.41,4.36,4.34,4.34,0,0,1-4.41,4.44A4.28,4.28,0,0,1,35.23,73.29Zm7.66.27c0-2.1-.93-4.36-3.35-4.36-1.33,0-3,.9-3,3.68,0,1.88.91,4.32,3.42,4.32C41.44,77.2,42.89,76.06,42.89,73.56Z"/><path class="cls-2" d="M54,75.23c0,.38,0,1.9,0,2.23a.24.24,0,0,1-.24.14c-.16-.22-.52-.67-1.63-1.92l-3-3.36c-.34-.39-1.21-1.43-1.47-1.71h0a3.25,3.25,0,0,0-.06.82V74.2a9.76,9.76,0,0,0,.23,2.63c.07.14.33.22.65.25l.39,0a.23.23,0,0,1,0,.32c-.57,0-1,0-1.48,0s-.88,0-1.32,0a.23.23,0,0,1,0-.32l.34,0c.3,0,.5-.12.56-.26a12.15,12.15,0,0,0,.17-2.62V70.53a1.15,1.15,0,0,0-.28-.91,1.38,1.38,0,0,0-.79-.31l-.22,0c-.07-.08-.07-.27,0-.32.53,0,1.21,0,1.44,0a5,5,0,0,0,.58,0A17.06,17.06,0,0,0,50,71.76l1.24,1.39c.87,1,1.5,1.69,2.09,2.3h0a1.29,1.29,0,0,0,.05-.53V72.2a9,9,0,0,0-.25-2.63c-.08-.12-.28-.2-.79-.26l-.22,0a.21.21,0,0,1,0-.32c.58,0,1,0,1.5,0s.87,0,1.3,0a.22.22,0,0,1,0,.32l-.18,0c-.4.06-.66.17-.71.27A10.54,10.54,0,0,0,54,72.2Z"/><path class="cls-2" d="M61.14,74.44c-.09-.27-.14-.31-.52-.31H58.7c-.32,0-.4,0-.48.3l-.45,1.34a4.87,4.87,0,0,0-.28,1c0,.15.06.23.37.26l.42,0a.2.2,0,0,1,0,.32c-.33,0-.72,0-1.32,0-.42,0-.88,0-1.22,0a.26.26,0,0,1,0-.32l.42,0a.86.86,0,0,0,.76-.63c.23-.58.58-1.41,1.12-2.83l1.29-3.43a1.8,1.8,0,0,0,.22-.9,1.43,1.43,0,0,0,.66-.49.18.18,0,0,1,.19.12c.16.56.37,1.14.56,1.7l1.74,5.11c.37,1.09.53,1.28,1.08,1.35l.34,0a.24.24,0,0,1,0,.32c-.52,0-1,0-1.53,0s-1.1,0-1.47,0a.22.22,0,0,1,0-.32l.37,0c.26,0,.44-.11.44-.23a2.68,2.68,0,0,0-.16-.68Zm-2.52-1.13c-.1.3-.09.31.27.31h1.56c.37,0,.4-.05.28-.39L60,71.15a8.23,8.23,0,0,0-.29-.8h0a7.69,7.69,0,0,0-.31.75Z"/><path class="cls-2" d="M66.27,70.91c0-1.33,0-1.54-.82-1.6l-.32,0a.26.26,0,0,1,0-.32c.71,0,1.15,0,1.65,0s.93,0,1.57,0a.26.26,0,0,1,0,.32l-.3,0c-.75.06-.78.27-.78,1.6v4.42c0,.8,0,1.14.27,1.38S68,77,69,77s1.35,0,1.56-.17a2.71,2.71,0,0,0,.83-1.25c.08-.07.32,0,.32.07a9.89,9.89,0,0,1-.53,1.78c-.65,0-1.86,0-3.17,0H66.8c-.53,0-.94,0-1.65,0a.25.25,0,0,1,0-.32l.38,0c.74-.08.76-.26.76-1.59Z"/><path class="cls-1" d="M85.31,17.83c0-.74.11-1.94-.85-2.26v-.05h3.61v.05c-1,.3-.85,1.52-.85,2.26v6.24c0,.76-.11,2,.85,2.28v0H84.46v0c1-.31.85-1.54.85-2.28Zm4.62,0c.62-.78,1.74-1.8.49-2.3v-.05H93.8v0l-4.33,4.87,3.8,4.38a5.74,5.74,0,0,0,2.26,1.56v0H93.76a3,3,0,0,1-2.13-.71l-4.16-5Z"/><path class="cls-1" d="M99.12,21.09v3c0,.74-.11,1.95.83,2.26v0H96.38v0c.94-.31.83-1.52.83-2.26V17.83c0-.74.13-1.94-.83-2.26v-.05H100v.05c-.94.32-.83,1.52-.83,2.28v2h6.79v-2c0-.76.12-2-.83-2.28v-.05h3.59v.05c-1,.32-.85,1.52-.85,2.26v6.26c0,.74-.11,1.95.85,2.26v0h-3.59v0c1-.31.83-1.52.83-2.26v-3Z"/><path class="cls-1" d="M113.88,22.32l-1,2.32c-.4.94-.53,1.41.38,1.71v0h-3.46v0A3.75,3.75,0,0,0,111.64,24l3.14-6.89c.26-.6.62-1.3-.28-1.54v-.05h3l3.9,8.48a3.92,3.92,0,0,0,1.84,2.35v0h-3.85v0c.92-.36.78-.55.27-1.71l-1-2.32Zm2.35-5.39-1.86,4.16h3.7Z"/><path class="cls-1" d="M124.12,26.4l6.8-9.52-3.19-.17a4.5,4.5,0,0,0-2.83.71h-.05l1-1.9h8.3L127.35,25l3.94.2A7.07,7.07,0,0,0,135,24.3h0l-1,2.1Z"/><path class="cls-1" d="M139.6,22.32l-1,2.32c-.4.94-.53,1.41.37,1.71v0h-3.45v0A3.77,3.77,0,0,0,137.36,24l3.14-6.89c.27-.6.62-1.3-.28-1.54v-.05h3L147.1,24a3.92,3.92,0,0,0,1.84,2.35v0h-3.85v0c.92-.36.77-.55.26-1.71l-1-2.32ZM142,16.93l-1.86,4.16h3.7Z"/><path class="cls-1" d="M152.41,24.25c0,.92,0,1.59,1,2.1v0h-3.33v0c1-.51,1-1.18,1-2.1v-6.6c0-.92,0-1.58-1-2.08v-.05h2.75v0a1,1,0,0,0,.28.41l.26.33,6.88,7.64V17.65c0-.92,0-1.58-1-2.08v-.05h3.31v.05c-1,.5-1,1.16-1,2.08v9.28A5.11,5.11,0,0,1,158.86,25l-6.45-7.19Z"/><path class="cls-1" d="M167.18,22.32l-1,2.32c-.4.94-.53,1.41.37,1.71v0h-3.45v0A3.75,3.75,0,0,0,165,24l3.14-6.89c.26-.6.61-1.3-.29-1.54v-.05h3L174.69,24a3.88,3.88,0,0,0,1.84,2.35v0h-3.86v0c.92-.36.77-.55.26-1.71l-1-2.32Zm2.35-5.39-1.86,4.16h3.71Z"/><path class="cls-1" d="M180.39,21.09v3c0,.74-.11,1.95.83,2.26v0h-3.57v0c.94-.31.82-1.52.82-2.26V17.83c0-.74.13-1.94-.82-2.26v-.05h3.57v.05c-.94.32-.83,1.52-.83,2.28v2h6.78v-2c0-.76.14-2-.82-2.28v-.05h3.58v.05c-1,.32-.84,1.52-.84,2.26v6.26c0,.74-.11,1.95.84,2.26v0h-3.58v0c1-.31.82-1.52.82-2.26v-3Z"/><path class="cls-1" d="M99.51,32.29h-.09c-1.15-1.14-3.29-1.49-5-1.49-4.39,0-7.74,2.53-7.74,6.53s3.6,7,8.06,7a16.15,16.15,0,0,0,3.91-.47V40.31c0-1.14,0-2.36-1.29-2.81v-.07h4.31v.07a2.65,2.65,0,0,0-.14,1.07v5.7a2.5,2.5,0,0,0,.14,1.12,41.38,41.38,0,0,1-6.74.75c-7.21,0-11.47-3.48-11.47-8.46,0-5.33,4.82-8.66,11.64-8.66a24.35,24.35,0,0,1,4.43.42Z"/><path class="cls-1" d="M111.71,44a7.51,7.51,0,0,0,5-1.51h.09l-1.47,3.3H103.73v-.08c1.44-.44,1.27-2.28,1.27-3.39V32.92c0-1.15.17-3-1.27-3.43v-.07h5.38v.07c-1.44.47-1.24,2.31-1.24,3.43V43.73Z"/><path class="cls-1" d="M138.36,37.41c0,5.05-4.76,8.73-10.37,8.73s-10.29-3.53-10.29-8.61c0-4.71,4.65-8.66,10.57-8.54S138.36,32.94,138.36,37.41Zm-17.44-.11a7.11,7.11,0,0,0,7.21,7.05c4.28,0,7-2.76,7-6.45a6.94,6.94,0,0,0-7.07-7.12C123.71,30.78,120.92,33.56,120.92,37.3Z"/><path class="cls-1" d="M141.53,32.89c0-1.12.19-2.93-1.24-3.4v-.07H147c3.72,0,5.89,1.38,5.89,3.59,0,1.66-1.21,2.61-2.82,3.23,2.54.47,4.59,2,4.59,4.39A5,5,0,0,1,151.25,45c-2,.84-4.19.77-6.31.77h-4.65v-.08c1.41-.47,1.24-2.28,1.24-3.42Zm3.8,3.1c1.83,0,4.46-.54,4.46-2.58,0-1.71-1.81-2.61-3.5-2.45l-1.89.17V36Zm1.52,8c2.32.2,4.66-.74,4.66-3.1s-2.65-3.44-5.13-3.32l-2,.1v6.12Z"/><path class="cls-1" d="M160.93,39.61l-1.47,3.5c-.59,1.39-.79,2.11.56,2.55v.08h-5.18v-.08c1.63-.72,2.11-2.1,2.74-3.52l4.7-10.34c.39-.9.93-1.93-.42-2.31v-.07h4.45l5.86,12.72c.65,1.42,1.16,2.8,2.76,3.52v.08h-5.77v-.08c1.38-.54,1.15-.82.39-2.55L168,39.61Zm3.52-8.08-2.79,6.25h5.55Z"/><path class="cls-1" d="M184.68,44a7.56,7.56,0,0,0,5-1.51h.08l-1.46,3.3H176.7v-.08c1.44-.44,1.27-2.28,1.27-3.39V32.92c0-1.15.17-3-1.27-3.43v-.07h5.39v.07c-1.44.47-1.25,2.31-1.25,3.43V43.73Z"/><path class="cls-1" d="M90.75,60.55A6.39,6.39,0,0,0,95,59.27h.07l-1.24,2.8H84V62c1.22-.37,1.07-1.93,1.07-2.88V51.18c0-1,.15-2.49-1.07-2.9v-.06h4.56v.06c-1.21.41-1.05,2-1.05,2.9v9.18Z"/><path class="cls-1" d="M99.68,60.3l3,.25a6.5,6.5,0,0,0,4.42-1.24h.08l-1.08,2.76h-10V62c1.22-.37,1.07-1.93,1.07-2.88V51.18c0-1,.15-2.49-1.07-2.9v-.06h7.65a2.76,2.76,0,0,0,1.13-.11H105v2.47H105a3.65,3.65,0,0,0-2.83-.85,16.07,16.07,0,0,0-2.44.15V53.8h2.85a2.68,2.68,0,0,0,1-.13h.07V55.9h-.07c-.38-.61-1.39-.59-2.13-.59H99.68Z"/><path class="cls-1" d="M120.85,50.83a9.12,9.12,0,0,0-4.43-1.2c-3.3,0-5.6,2.13-5.6,5.18a5.85,5.85,0,0,0,6.07,5.85,11.6,11.6,0,0,0,5.1-1.33h.07l-1.21,2.44a9.43,9.43,0,0,1-3.62.63c-5.64,0-9.14-2.77-9.14-7.28,0-4.36,3.5-7.24,8.4-7.24a21.3,21.3,0,0,1,4.36.53Z"/><path class="cls-1" d="M129.41,59.33c0,1.2,0,2,1.25,2.67v.07h-4.74V62c1.2-.39,1-1.93,1-2.88V49.73h-2.1a4.54,4.54,0,0,0-2.85.85H122l.84-2.51h.07a3.93,3.93,0,0,0,.91.15h9.52a2.93,2.93,0,0,0,1.1-.15h.07l-.77,2.51h-.07c-.31-.74-1.26-.85-2.06-.85h-2.15Z"/><path class="cls-1" d="M146.7,60.68a7.17,7.17,0,0,1-9,.25c-1.27-1.22-1.22-2.63-1.22-4.14V51.17c0-1,.17-2.48-1.05-2.89v-.06H140v.06c-1.2.41-1.05,1.94-1.05,2.89v5.62c0,2.79,1.34,4.1,3.8,4.1a4.49,4.49,0,0,0,3.49-1.47,2.51,2.51,0,0,0,.5-1.92V51.17c0-1,.15-2.48-1-2.89v-.06h4.55l0,.06c-1.22.41-1.08,1.94-1.08,2.9v7.94c0,1-.14,2.49,1.08,2.88v.07H146.7Z"/><path class="cls-1" d="M157.93,48.22c3.21,0,4.95,1.47,4.95,3.39s-1.84,3.3-3.8,3.7l3.45,3.81a16.24,16.24,0,0,0,3.87,3h-2.2a3.35,3.35,0,0,1-2.78-1l-2.91-3.18-2.2-3c1.91-.25,4.13-1,4.13-3,0-1.52-1.48-2.4-3.08-2.33a15,15,0,0,0-1.63.16v9.43c0,1-.14,2.51,1.08,2.88v.07h-4.57V62c1.22-.37,1-1.93,1-2.88V51.18c0-1,.17-2.49-1-2.9v-.06Z"/><path class="cls-1" d="M170.33,60.3l3,.25a6.53,6.53,0,0,0,4.42-1.24h.07l-1.07,2.76h-10V62c1.22-.37,1.08-1.93,1.08-2.88V51.18c0-1,.14-2.49-1.08-2.9v-.06h7.65a2.72,2.72,0,0,0,1.13-.11h.07v2.47h-.07a3.65,3.65,0,0,0-2.82-.85,16,16,0,0,0-2.44.15V53.8h2.84a2.73,2.73,0,0,0,1.06-.13h.07V55.9h-.07c-.39-.61-1.39-.59-2.13-.59h-1.77Z"/><path class="cls-1" d="M189.16,50.72a5.89,5.89,0,0,0-3.76-1.32c-1.36,0-3.09.46-3.09,1.91,0,2.89,8.23,2.85,8.23,6.74,0,2.25-2.67,4.35-6.41,4.35a13.7,13.7,0,0,1-4.28-.63l-.69-2.63a8.91,8.91,0,0,0,5.24,1.75c1.36,0,3.42-.71,3.42-2.19,0-3.29-8.23-2.69-8.23-7.15,0-2.66,3.08-3.67,6-3.67a13.41,13.41,0,0,1,3.57.47Z"/></svg>